<svg width="48" height="38" viewBox="0 0 48 38" fill="none" xmlns="http://www.w3.org/2000/svg">
<g filter="url(#filter0_d_2545_2838)">
<g clip-path="url(#clip0_2545_2838)">
<path d="M4 20H44V30H4V20Z" fill="black"/>
<path d="M4 10H44V20H4V10Z" fill="white"/>
<path d="M4 0H44V10H4V0Z" fill="#CE1126"/>
<path d="M23.9797 14.8564L26.8915 17.5598L26.6832 12.6503C26.6534 11.9064 26.0073 12.0764 25.5355 12.3442C25.0637 12.6503 24.5153 12.6503 23.9457 12.4505C23.3719 12.6503 22.8278 12.6503 22.356 12.3442C21.8884 12.0764 21.238 11.9064 21.2083 12.6503L21 17.5598L23.9797 14.8564Z" fill="white" stroke="#C09300" strokeWidth="0.1" stroke-linejoin="round"/>
<path d="M21.5441 12.4802L21.3401 17.2538L21 17.5598L21.2083 12.6503C21.3087 12.5732 21.4226 12.5156 21.5441 12.4802ZM21.9522 12.8203L21.7821 16.8159L21.4421 17.1645L21.6461 12.5525C21.7141 12.6205 21.9139 12.7863 21.9522 12.8203ZM22.322 13.1263L22.1902 16.4589L21.9139 16.7267L22.0839 12.9265C22.1519 12.9903 22.288 13.0881 22.322 13.1263ZM22.7258 13.2964L22.594 16.1358L22.3262 16.3526L22.458 13.1943C22.526 13.2241 22.6578 13.2964 22.7258 13.2964ZM23.0998 13.2964L23.0021 15.664L22.7258 15.9318L22.832 13.3261C22.8958 13.3261 23.0701 13.3261 23.0998 13.2964Z" fill="#C09300"/>
<path d="M26.3475 12.4802L26.5515 17.2538L26.8916 17.5598L26.6833 12.6503C26.5829 12.5732 26.469 12.5156 26.3475 12.4802ZM25.9394 12.8203L26.1095 16.8159L26.4495 17.1645L26.2455 12.5525C26.1775 12.6205 25.9777 12.7863 25.9394 12.8203ZM25.5696 13.1263L25.7014 16.4589L25.9777 16.7267L25.8077 12.9265C25.7397 12.9903 25.6036 13.0881 25.5696 13.1263ZM25.1658 13.2964L25.2976 16.1358L25.5654 16.3526L25.4336 13.1943C25.3656 13.2241 25.2338 13.2964 25.1658 13.2964ZM24.7918 13.2964L24.8895 15.664L25.1658 15.9318L25.0596 13.3261C24.9958 13.3261 24.8215 13.3261 24.7918 13.2964Z" fill="#C09300"/>
<path d="M24.0825 15.392L24.4905 17.2538L24.3545 17.3899L24.2142 17.2836L23.9847 15.6258L24.0825 17.2836L23.9464 17.4536L23.8147 17.2836L23.9124 15.6258L23.6786 17.2836L23.5384 17.3899L23.4023 17.2538L23.8104 15.3963H24.0825V15.392Z" fill="#C09300" stroke="#C09300" strokeWidth="0.1"/>
<path d="M23.0326 14.576L22.2207 17.4537L23.3386 17.6237L23.8105 15.4601L23.0326 14.576Z" fill="white" stroke="#C09300" strokeWidth="0.1" stroke-linejoin="round"/>
<path d="M22.7646 15.5622L22.8624 15.796L23.3895 15.2944" stroke="#C09300" strokeWidth="0.1" stroke-linejoin="round"/>
<path d="M23.1295 14.9671L23.2401 16L23.5759 15.5579M23.4398 15.7279L23.6226 16.3655M23.6949 16.1318L23.3251 16.6929M23.4398 17.2539L23.3208 16.6929M23.3208 16.6929L23.2188 16.1233L22.968 16.4591L22.8617 16.0723L22.5132 16.4293L22.6875 17.0754L22.934 16.6759L23.0658 17.0839L23.3208 16.6929Z" stroke="#C09300" strokeWidth="0.1" stroke-linejoin="round"/>
<path d="M22.459 17.3899L22.6843 17.0711L22.8288 17.56L23.0328 17.2199L23.1646 17.628" stroke="#C09300" strokeWidth="0.1" stroke-linejoin="round"/>
<path d="M24.8605 14.576L25.6724 17.4537L24.5544 17.6237L24.0826 15.4601L24.8605 14.576Z" fill="white" stroke="#C09300" strokeWidth="0.1" stroke-linejoin="round"/>
<path d="M25.1284 15.5622L25.0307 15.796L24.5036 15.2944" stroke="#C09300" strokeWidth="0.1" stroke-linejoin="round"/>
<path d="M24.7635 14.9671L24.653 16L24.3172 15.5579M24.4532 15.7279L24.2705 16.3655M24.1982 16.1318L24.568 16.6929M24.4532 17.2539L24.5723 16.6929M24.5723 16.6929L24.6743 16.1233L24.9251 16.4591L25.0313 16.0723L25.3799 16.4293L25.2056 17.0754L24.9591 16.6759L24.8273 17.0839L24.5723 16.6929Z" stroke="#C09300" strokeWidth="0.1" stroke-linejoin="round"/>
<path d="M25.4346 17.3899L25.2093 17.0711L25.0648 17.56L24.8607 17.2199L24.729 17.628" stroke="#C09300" strokeWidth="0.1" stroke-linejoin="round"/>
<path d="M23.9452 18.7415C24.7953 18.7415 25.603 18.6735 26.0791 18.5418C26.2788 18.5035 26.2788 18.4015 26.2788 18.2655C26.4829 18.1975 26.3809 17.9594 26.5211 17.9594C26.3766 18.0019 26.3511 17.7256 26.1811 17.7596C26.1811 17.5216 25.9388 17.4918 25.739 17.5598C25.3352 17.6916 24.6211 17.7256 23.9452 17.7256C23.2651 17.6916 22.5595 17.6916 22.1514 17.5556C21.9516 17.4918 21.7136 17.5216 21.7136 17.7596C21.5436 17.7256 21.5138 17.9977 21.3735 17.9594C21.5138 17.9594 21.4075 18.2017 21.6116 18.2655C21.6116 18.4015 21.6116 18.5035 21.8156 18.5418C22.2832 18.6735 23.0993 18.7415 23.9452 18.7415Z" fill="white" stroke="#C09300" strokeWidth="0.1" stroke-linecap="round" stroke-linejoin="round"/>
<path d="M22.7928 17.4536C23.0648 17.4919 23.3709 17.5217 23.6089 17.4919C23.7449 17.4919 23.8427 17.7257 23.5706 17.7597C23.3368 17.7894 22.9628 17.7597 22.763 17.7257C22.5001 17.6797 22.2392 17.6229 21.9809 17.5557C21.7428 17.4536 21.9129 17.2581 22.0489 17.2836C22.2916 17.3614 22.5404 17.4182 22.7928 17.4536ZM25.0966 17.4536C24.8246 17.4919 24.5185 17.5217 24.289 17.4919C24.1445 17.4919 24.0467 17.7257 24.3188 17.7597C24.5568 17.7894 24.9266 17.7597 25.1264 17.7257C25.2964 17.6917 25.6705 17.6279 25.9085 17.5557C26.1466 17.4536 25.9765 17.2581 25.8405 17.2836C25.5978 17.3614 25.349 17.4183 25.0966 17.4536Z" fill="white" stroke="#C09300" strokeWidth="0.1" stroke-linecap="round" stroke-linejoin="round"/>
<path d="M21.9479 17.3219C21.7439 17.2836 21.6504 17.5217 21.7141 17.6577C21.7439 17.5897 21.8842 17.5897 21.9139 17.5217C21.9522 17.4197 21.8842 17.4197 21.9522 17.3219H21.9479ZM22.7641 17.9467C22.7641 17.8107 22.8958 17.8277 22.8958 17.6917C22.8958 17.6279 22.8618 17.5217 22.7938 17.5217C22.7584 17.5237 22.725 17.5387 22.6999 17.5638C22.6748 17.5888 22.6598 17.6223 22.6578 17.6577C22.628 17.7895 22.7641 17.8107 22.7641 17.9467ZM23.729 17.5599C23.9287 17.5599 23.9075 17.8277 23.814 17.9637C23.814 17.866 23.6439 17.8277 23.6439 17.7597C23.6439 17.6577 23.797 17.6577 23.729 17.5599ZM25.9393 17.3219C26.1476 17.2836 26.2454 17.5217 26.1774 17.6577C26.1476 17.5897 26.0073 17.5897 25.9776 17.5217C25.9393 17.4197 26.0073 17.4197 25.9393 17.3219ZM25.1359 17.9425C25.1359 17.8065 24.9999 17.8235 24.9999 17.6874C24.9999 17.6237 25.0339 17.5174 25.1019 17.5174C25.1373 17.5194 25.1708 17.5344 25.1959 17.5595C25.2209 17.5846 25.2359 17.618 25.238 17.6534C25.2677 17.7852 25.1317 17.8065 25.1317 17.9425H25.1359ZM24.1583 17.5599C23.9585 17.5599 23.9797 17.8277 24.0733 17.9637C24.0733 17.866 24.2433 17.8277 24.2433 17.7597C24.2433 17.6577 24.0903 17.6577 24.1583 17.5599Z" fill="white" stroke="#C09300" strokeWidth="0.1" stroke-linecap="round" stroke-linejoin="round"/>
<path d="M22.0195 17.3898C22.0875 17.3898 22.1896 17.4196 22.2193 17.4578L22.0195 17.3898ZM22.3553 17.4918C22.3893 17.4918 22.5254 17.5216 22.5891 17.5599L22.3553 17.4918ZM23.571 17.6279C23.5073 17.6279 23.3713 17.6279 23.3372 17.6576L23.571 17.6236V17.6279ZM23.2012 17.6279C23.163 17.5896 23.0312 17.5896 22.9632 17.6279H23.2012ZM25.8707 17.3898C25.7985 17.3907 25.7286 17.4146 25.6709 17.4578L25.8707 17.3898ZM25.5391 17.4918C25.4966 17.4918 25.3691 17.5216 25.3011 17.5599L25.5391 17.4918ZM24.3192 17.6279C24.3829 17.6279 24.5189 17.6279 24.5572 17.6576L24.3192 17.6236V17.6279ZM24.689 17.6279C24.7272 17.5896 24.859 17.5896 24.927 17.6279H24.689Z" fill="white" stroke="#C09300" strokeWidth="0.1" stroke-linecap="round" stroke-linejoin="round"/>
<path d="M21.9603 17.9255C21.939 17.9213 21.9263 17.9 21.9348 17.883C21.939 17.8532 21.9603 17.8405 21.9773 17.849C21.9943 17.849 22.0156 17.8745 22.0156 17.883L21.9986 17.9128L21.9901 17.917C21.9901 17.9255 21.973 17.9255 21.9603 17.9255ZM24.2982 18.0913C24.2897 18.0913 24.2727 18.07 24.2727 18.0615C24.2727 18.0445 24.2982 18.019 24.3152 18.019L24.3492 18.036C24.3619 18.0488 24.3619 18.0743 24.3449 18.087C24.3364 18.0955 24.3109 18.0955 24.2982 18.087V18.0913ZM24.3109 18.1975C24.2939 18.189 24.2897 18.1805 24.2854 18.1635C24.2854 18.1423 24.2854 18.138 24.3067 18.1253L24.3237 18.1168L24.3407 18.1253C24.3577 18.1338 24.3704 18.1423 24.3704 18.1593C24.3704 18.172 24.3577 18.1848 24.3407 18.1933C24.3279 18.2018 24.3237 18.2018 24.3109 18.1933V18.1975Z" fill="#C09300"/>
<path d="M22.1512 17.7299C22.1341 17.7299 22.1129 17.747 22.1001 17.7555C22.0746 17.7597 22.0406 17.7767 22.0151 17.7555C21.9896 17.7512 21.9556 17.7555 21.9514 17.7895C21.9556 17.8192 21.9939 17.832 22.0194 17.815C22.0364 17.7937 22.0831 17.7767 22.0916 17.815C22.0704 17.849 22.0746 17.8872 22.0576 17.917C22.0576 17.9382 22.0449 17.9552 22.0364 17.9722C22.0151 17.9722 21.9939 17.9722 21.9769 17.985C21.9637 17.985 21.9507 17.9881 21.9389 17.994C21.927 17.9999 21.9168 18.0084 21.9089 18.019C21.8919 18.0445 21.8749 18.07 21.8706 18.104C21.8749 18.1295 21.9131 18.138 21.9386 18.1423L22.0236 18.1678L22.1597 18.206C22.2277 18.2273 22.2957 18.2358 22.3637 18.2528L22.3849 18.257C22.4147 18.2655 22.4274 18.2358 22.4274 18.2145L22.47 18.0615C22.4785 18.0403 22.4912 17.9977 22.4529 18.0062C22.4317 18.019 22.4104 18.0403 22.3849 18.0403C22.3467 18.0403 22.3679 18.0828 22.3849 18.0955C22.3849 18.121 22.3764 18.1508 22.3637 18.172C22.3382 18.1848 22.3127 18.172 22.2872 18.1635C22.2659 18.1635 22.2149 18.1508 22.2362 18.121L22.2574 18.0445C22.2702 18.019 22.2702 17.9892 22.2787 17.9595C22.2617 17.9297 22.2362 17.9722 22.2149 17.9765C22.1979 17.985 22.1469 17.9892 22.1724 18.019C22.1979 18.036 22.1809 18.0658 22.1724 18.0913C22.1724 18.121 22.1384 18.1338 22.1129 18.121C22.0874 18.121 22.0491 18.0998 22.0704 18.0743L22.0916 17.9977L22.1214 17.9127C22.1214 17.883 22.1341 17.8617 22.1469 17.8362C22.1469 17.8065 22.1682 17.781 22.1682 17.7512C22.1682 17.7385 22.1597 17.7342 22.1512 17.7342V17.7299ZM21.9939 18.0403C21.9958 18.0391 21.998 18.0385 22.0003 18.0385C22.0025 18.0385 22.0047 18.0391 22.0066 18.0403C22.0151 18.0488 22.0151 18.0573 22.0066 18.0658L21.9939 18.0743C21.9726 18.0743 21.9684 18.07 21.9684 18.0615C21.9684 18.0573 21.9684 18.053 21.9811 18.0488C21.9863 18.045 21.992 18.0422 21.9981 18.0403H21.9939ZM21.9514 18.2528C21.9301 18.2358 21.9344 18.223 21.9641 18.1975C21.9811 18.189 21.9854 18.189 22.0024 18.2018C22.0279 18.223 22.0279 18.2358 22.0024 18.257C21.9939 18.2655 21.9896 18.2655 21.9811 18.2655C21.9684 18.2655 21.9641 18.2655 21.9514 18.257V18.2528ZM22.0789 18.2953C22.0694 18.2923 22.0614 18.2858 22.0567 18.2771C22.0519 18.2684 22.0507 18.2581 22.0534 18.2485C22.0619 18.2315 22.0661 18.2273 22.0916 18.2273C22.1214 18.2273 22.1256 18.2315 22.1299 18.257C22.1299 18.274 22.1299 18.2783 22.1171 18.2868C22.1124 18.2905 22.1069 18.2932 22.1011 18.2947C22.0952 18.2962 22.0891 18.2964 22.0831 18.2953H22.0789ZM25.8705 18.2953C25.862 18.291 25.8578 18.2868 25.8578 18.274C25.8578 18.257 25.8663 18.2443 25.8918 18.2358C25.9173 18.223 25.9343 18.223 25.9428 18.2443C25.9555 18.2698 25.9555 18.2783 25.9385 18.2953C25.93 18.308 25.9258 18.308 25.9045 18.308C25.8833 18.308 25.879 18.308 25.8705 18.2995V18.2953ZM22.2574 18.3463C22.2404 18.3463 22.2319 18.3293 22.2319 18.3123C22.2319 18.2995 22.2319 18.2953 22.2404 18.2868L22.2659 18.2783L22.2914 18.2825C22.3127 18.2995 22.3169 18.3165 22.3042 18.3335C22.2914 18.3506 22.2787 18.3506 22.2532 18.3463H22.2574ZM23.1841 18.3888L23.1756 18.3761C23.1756 18.3506 23.1756 18.3293 23.1841 18.3038C23.1883 18.2825 23.1841 18.2613 23.1926 18.24L23.2096 18.121C23.2096 18.0998 23.2096 18.0785 23.2181 18.0615C23.2223 18.0275 23.2181 17.9977 23.2266 17.968C23.2266 17.9552 23.2393 17.9255 23.2521 17.9425C23.2691 17.968 23.2903 17.985 23.3116 18.0062C23.3286 18.019 23.3116 18.036 23.2988 18.0403C23.2818 18.0445 23.2776 18.0658 23.2776 18.0828L23.2691 18.1338C23.2691 18.1635 23.2691 18.189 23.2606 18.2188L23.2563 18.2953L23.2478 18.3463C23.2478 18.3633 23.2478 18.3846 23.2308 18.3931C23.2181 18.4016 23.1968 18.4016 23.1883 18.3888H23.1841ZM24.4465 17.9722L24.3913 18.0232C24.3658 18.0445 24.4125 18.053 24.4168 18.07C24.4253 18.0955 24.4253 18.121 24.4253 18.1465C24.4338 18.172 24.438 18.1933 24.4338 18.2188C24.4338 18.2485 24.3998 18.24 24.3828 18.257C24.3615 18.2655 24.353 18.2868 24.3403 18.2995C24.3302 18.3209 24.3244 18.344 24.3233 18.3676C24.3233 18.3888 24.3105 18.4101 24.3233 18.4271L24.3275 18.4356H24.3488L24.4125 18.4313C24.4635 18.4228 24.5188 18.4228 24.5698 18.4186L24.6633 18.4101C24.6888 18.4143 24.7016 18.3888 24.7016 18.3676C24.6846 18.3378 24.6973 18.308 24.6846 18.2825C24.6761 18.2485 24.6803 18.2188 24.6761 18.189C24.6761 18.1635 24.6463 18.155 24.6336 18.172C24.6166 18.189 24.591 18.1933 24.5825 18.2103C24.5698 18.2358 24.6081 18.2358 24.6166 18.2528L24.6208 18.3165C24.6251 18.342 24.5995 18.342 24.5783 18.3463C24.557 18.3548 24.5273 18.3591 24.5145 18.3335C24.506 18.3123 24.506 18.291 24.506 18.2698C24.506 18.2273 24.4933 18.1933 24.4933 18.155C24.4933 18.1125 24.4805 18.0658 24.4805 18.019C24.4805 17.9977 24.4763 17.968 24.4465 17.9722ZM24.421 18.3208H24.4338V18.3548L24.421 18.3591C24.4154 18.3608 24.4098 18.3622 24.404 18.3633C24.4012 18.3634 24.3983 18.3634 24.3955 18.3633C24.387 18.3548 24.387 18.3421 24.3998 18.3293L24.421 18.3208ZM23.1458 17.9297C23.1331 17.9297 23.1118 17.9595 23.0948 17.9552C23.0565 17.9595 23.0608 17.9977 23.0906 18.0105V18.0445C23.0948 18.0785 23.0736 18.1083 23.0778 18.1423C23.0778 18.1763 23.065 18.2145 23.065 18.2528C23.0523 18.291 23.0523 18.3293 23.048 18.3676C23.0438 18.4016 23.0183 18.3888 22.997 18.3803V18.3378C23.0013 18.2995 22.9758 18.291 22.946 18.2868C22.9163 18.2868 22.9035 18.2655 22.912 18.24C22.9248 18.223 22.9545 18.2273 22.9758 18.2273C23.0183 18.2358 23.014 18.1805 22.9928 18.1593C22.9758 18.1338 22.9418 18.1168 22.9333 18.0913C22.9333 18.0573 22.912 18.019 22.8823 18.002C22.8355 17.9977 22.7973 18.036 22.7845 18.0785C22.7633 18.0785 22.742 18.087 22.725 18.0955C22.6952 18.104 22.6527 18.155 22.6952 18.1763C22.7165 18.1805 22.7888 18.1975 22.7547 18.2273C22.7377 18.2613 22.7037 18.2613 22.674 18.2528C22.6442 18.2528 22.6102 18.2358 22.6102 18.2018C22.606 18.1678 22.606 18.1338 22.5932 18.104C22.5847 18.07 22.5465 18.0785 22.5422 18.1125C22.5125 18.1338 22.5167 18.172 22.538 18.1975C22.5507 18.2273 22.538 18.2655 22.5252 18.291C22.5167 18.3335 22.4742 18.3335 22.4444 18.342C22.4317 18.3506 22.3764 18.3421 22.3977 18.3718C22.4296 18.3865 22.4652 18.3909 22.4997 18.3846C22.5337 18.3846 22.5635 18.3548 22.5847 18.325C22.606 18.3038 22.6442 18.3165 22.6782 18.3165C22.708 18.3165 22.742 18.3378 22.776 18.3208C22.7845 18.2995 22.827 18.257 22.8398 18.2995C22.8398 18.3378 22.8695 18.3548 22.9035 18.3506C22.9418 18.3506 22.9248 18.3761 22.9248 18.4016C22.9248 18.4398 22.9545 18.4611 22.9885 18.4781H23.0225C23.0523 18.4653 23.0863 18.4526 23.0991 18.4186C23.1118 18.3888 23.1118 18.3548 23.1203 18.325C23.1288 18.2783 23.1373 18.2273 23.1373 18.1805C23.1501 18.138 23.1458 18.0913 23.1543 18.0445L23.1671 17.9467C23.1671 17.9255 23.1586 17.9255 23.1458 17.9297ZM22.861 18.104C22.8653 18.104 22.8695 18.1125 22.8695 18.1253C22.8695 18.1423 22.878 18.155 22.8908 18.1593V18.172L22.8568 18.1805C22.8355 18.1805 22.8185 18.172 22.8058 18.1593L22.7973 18.1508L22.81 18.1423L22.8313 18.121C22.844 18.1083 22.8525 18.104 22.861 18.104ZM25.6665 17.7682C25.642 17.77 25.6178 17.7742 25.5942 17.781C25.5517 17.781 25.5305 17.8235 25.573 17.849C25.5985 17.9127 25.6367 17.832 25.6792 17.8405C25.7387 17.849 25.743 17.917 25.7557 17.968C25.7557 18.0147 25.7727 18.0615 25.7855 18.1083C25.828 18.155 25.7557 18.1848 25.726 18.1508C25.7005 18.121 25.641 18.087 25.6112 18.1253C25.573 18.1423 25.5687 18.1933 25.539 18.2103C25.4879 18.223 25.4837 18.1593 25.4539 18.1338C25.4284 18.0955 25.3817 18.0913 25.3434 18.0828C25.3264 18.0445 25.3349 17.9807 25.3009 17.9552C25.2669 17.968 25.2074 18.0275 25.2584 18.0573C25.3009 18.0998 25.2372 18.1168 25.2159 18.1423C25.1819 18.1805 25.1734 18.2273 25.1734 18.2698C25.1181 18.2995 25.1096 18.2358 25.1011 18.1975C25.1011 18.1508 25.0586 18.1635 25.0289 18.1805C24.9864 18.1975 24.9694 18.2358 24.9439 18.2655V18.3506C24.9524 18.3888 24.9949 18.3718 25.0204 18.3676C25.0629 18.3506 25.0799 18.3973 25.0459 18.4228C25.0204 18.4483 24.9524 18.4356 24.9609 18.4823H25.0289C25.0714 18.4696 25.1224 18.4356 25.1266 18.3846C25.1351 18.342 25.1989 18.3463 25.2329 18.3378C25.2754 18.325 25.3307 18.3208 25.3434 18.3803C25.3732 18.4101 25.4369 18.4441 25.4709 18.4016C25.4871 18.3913 25.5001 18.3767 25.5084 18.3594C25.5166 18.3421 25.5199 18.3228 25.5177 18.3038C25.5134 18.2698 25.573 18.2698 25.59 18.291C25.6112 18.325 25.6792 18.3165 25.7132 18.291C25.7472 18.2698 25.7557 18.223 25.8067 18.223L26.0363 18.1593C26.0958 18.1465 26.0278 18.1083 26.0108 18.0828C25.9683 18.0615 25.9258 18.155 25.8748 18.1083C25.8323 18.0785 25.8365 18.0232 25.8237 17.9765C25.811 17.917 25.8152 17.849 25.7727 17.8065C25.7472 17.7767 25.7047 17.7682 25.6665 17.7682ZM25.3774 18.172C25.3817 18.172 25.3902 18.172 25.3987 18.1805C25.4157 18.189 25.4284 18.206 25.4284 18.223C25.4284 18.2315 25.4284 18.2315 25.4157 18.2358L25.3944 18.2443C25.3859 18.2443 25.3647 18.2315 25.3647 18.223V18.206C25.3562 18.189 25.3562 18.189 25.3647 18.1805L25.3774 18.172ZM25.6537 18.189C25.6707 18.189 25.6792 18.189 25.6877 18.2018C25.692 18.2188 25.6877 18.2273 25.6707 18.2358L25.6495 18.2443L25.6325 18.2315C25.624 18.2273 25.6197 18.223 25.6197 18.2145C25.6197 18.2018 25.6367 18.189 25.6537 18.1848V18.189ZM25.2712 18.189C25.2797 18.189 25.2839 18.189 25.2882 18.1975C25.2967 18.206 25.3009 18.2103 25.3009 18.223V18.2485C25.3009 18.2613 25.3009 18.257 25.2754 18.257C25.2499 18.257 25.2457 18.257 25.2457 18.2315C25.2457 18.2145 25.2457 18.2103 25.2584 18.2018C25.2627 18.1933 25.2712 18.1933 25.2754 18.1933L25.2712 18.189ZM25.0416 18.2528C25.0456 18.254 25.0493 18.2562 25.0523 18.2592C25.0552 18.2621 25.0574 18.2658 25.0586 18.2698C25.0586 18.2825 25.0586 18.291 25.0501 18.2953C25.0374 18.2995 25.0161 18.3038 25.0076 18.2953C25.0075 18.2939 25.0075 18.2925 25.0076 18.291C24.9991 18.2868 24.9991 18.2825 25.0076 18.2783V18.274L25.0161 18.2613C25.0187 18.2571 25.0227 18.254 25.0274 18.2525C25.032 18.2509 25.037 18.251 25.0416 18.2528ZM25.4327 18.3038L25.4539 18.308V18.3335H25.4029L25.3987 18.325C25.3987 18.3165 25.3987 18.3123 25.4072 18.308L25.4327 18.3038ZM24.7058 18.5078C24.7016 18.5078 24.6931 18.5036 24.7016 18.4993C24.7058 18.4866 24.7228 18.4823 24.7356 18.4738C24.7587 18.465 24.7792 18.4504 24.7951 18.4313C24.7951 18.4143 24.8121 18.4058 24.8121 18.3888L24.8078 18.3293C24.8021 18.3114 24.79 18.2963 24.7738 18.2868C24.7611 18.2825 24.7441 18.2783 24.7398 18.2613C24.7398 18.2485 24.7526 18.2358 24.7568 18.223L24.7823 18.172C24.7951 18.1593 24.8121 18.172 24.8163 18.1805L24.8376 18.223C24.8503 18.2358 24.8588 18.2485 24.8631 18.2655C24.8716 18.2825 24.8801 18.2953 24.8801 18.308L24.8886 18.3633C24.8886 18.3846 24.8886 18.4101 24.8801 18.4313L24.8546 18.4653C24.8418 18.4781 24.8291 18.4908 24.8121 18.4951C24.7993 18.4993 24.7908 18.5121 24.7738 18.5121H24.7101L24.7058 18.5078ZM24.4125 18.5248C24.404 18.5163 24.3998 18.5121 24.3998 18.4993C24.3998 18.4866 24.3998 18.4866 24.4125 18.4738C24.4295 18.4568 24.438 18.4568 24.472 18.4738C24.5018 18.4908 24.5145 18.4908 24.5145 18.4781C24.5188 18.4696 24.5358 18.4568 24.557 18.4568C24.5649 18.4571 24.5724 18.4601 24.5783 18.4653C24.5868 18.4738 24.591 18.4781 24.591 18.4951C24.591 18.5163 24.591 18.5163 24.5783 18.5291C24.5655 18.5376 24.5655 18.5376 24.5485 18.5376C24.541 18.5372 24.5337 18.5345 24.5277 18.53C24.5216 18.5254 24.517 18.5192 24.5145 18.5121C24.5145 18.5036 24.5145 18.4993 24.506 18.5078L24.4975 18.5121C24.489 18.5121 24.472 18.5248 24.4635 18.5333L24.4423 18.5376C24.4253 18.5376 24.4253 18.5376 24.4125 18.5248ZM23.5709 18.1465C23.5411 18.1465 23.5114 18.172 23.5071 18.2018C23.5156 18.2315 23.5411 18.2655 23.5241 18.2953C23.5369 18.3378 23.4901 18.3548 23.4604 18.3335C23.4434 18.291 23.4349 18.2485 23.4051 18.206C23.3711 18.1975 23.3583 18.2528 23.3328 18.274C23.3456 18.3038 23.3796 18.3335 23.3839 18.3718C23.3924 18.4143 23.3668 18.4568 23.3371 18.4738C23.3073 18.5036 23.2648 18.4951 23.2308 18.4993C23.1883 18.5248 23.2606 18.5333 23.2818 18.5333C23.3243 18.5376 23.3711 18.5333 23.4094 18.4993C23.4391 18.4866 23.4349 18.4271 23.4731 18.4228L23.6771 18.4356C23.7112 18.4441 23.7664 18.4313 23.7919 18.4568C23.7919 18.4993 23.8344 18.5333 23.8727 18.5503C23.8939 18.5588 23.9152 18.5291 23.9364 18.5248C23.9789 18.5121 23.9662 18.4611 23.9917 18.4398H24.2042C24.2127 18.4398 24.217 18.4186 24.2297 18.4101L24.2212 18.3293C24.2085 18.2953 24.2212 18.2528 24.2 18.223C24.1617 18.2145 24.132 18.2443 24.098 18.2485C24.0555 18.2655 24.0257 18.3038 24.0215 18.3463C24.0002 18.3846 23.9619 18.3378 23.9789 18.3038L23.9747 18.2613C23.9534 18.24 23.9152 18.2485 23.8854 18.2443L23.7579 18.2358C23.7154 18.2358 23.6771 18.24 23.6431 18.2315C23.6006 18.2315 23.6006 18.189 23.6006 18.155C23.5921 18.1485 23.5815 18.1455 23.5709 18.1465ZM23.6559 18.3038L23.6984 18.308H23.7537C23.7962 18.3165 23.8387 18.3165 23.8812 18.3165C23.8897 18.3165 23.8982 18.325 23.9067 18.3335V18.4186C23.9067 18.4313 23.9067 18.4483 23.8982 18.4526C23.896 18.456 23.8931 18.4588 23.8897 18.4611C23.8835 18.46 23.8776 18.4575 23.8724 18.4538C23.8673 18.4501 23.863 18.4453 23.8599 18.4398V18.3803C23.8515 18.3732 23.8411 18.3687 23.8302 18.3676L23.7197 18.3633L23.6346 18.3591C23.6219 18.3548 23.6049 18.3591 23.5964 18.342C23.5879 18.3335 23.6006 18.3165 23.6134 18.3123C23.6267 18.3063 23.6413 18.3034 23.6559 18.3038ZM24.1362 18.3165C24.1405 18.3165 24.1447 18.3165 24.1447 18.3293L24.1532 18.3506C24.1532 18.3548 24.1532 18.3591 24.1447 18.3591C24.1235 18.3676 24.1022 18.3676 24.0937 18.3591C24.0937 18.3548 24.0937 18.3378 24.1022 18.3335L24.1362 18.3165Z" fill="#C09300"/>
<path d="M23.9458 15.9106C25.3315 14.8479 25.2125 13.2836 25.2125 13.2836L25.1062 13.2921C24.8129 13.2921 24.1201 13.1221 23.9585 12.9138C23.7885 13.1051 23.0744 13.2964 22.7853 13.2964L22.6791 13.2836C22.6791 13.2836 22.5558 14.8436 23.9458 15.9106Z" fill="white" stroke="#C09300" strokeWidth="0.1"/>
<path d="M25.1024 13.3942H25.0684C24.8049 13.3942 24.1928 13.2624 23.9547 13.0584C23.7082 13.2454 23.0833 13.3984 22.824 13.3984C22.8126 13.398 22.8012 13.3966 22.79 13.3942C22.7924 13.6628 22.8295 13.93 22.9006 14.1891C23.0711 14.8132 23.4376 15.3661 23.9462 15.7661C24.4551 15.3646 24.8217 14.8103 24.9919 14.1848C25.0626 13.9271 25.0997 13.6614 25.1024 13.3942Z" fill="white" stroke="#C09300" strokeWidth="0.1"/>
<path d="M23.4957 13.2666C23.2673 13.341 23.0299 13.3839 22.79 13.3942L22.7943 13.5684C22.8088 13.777 22.8444 13.9835 22.9006 14.1848C23.0148 14.6028 23.2178 14.9914 23.4957 15.324V13.2666ZM24.3713 13.2666V15.358C24.6625 15.0177 24.8745 14.617 24.9919 14.1848C25.048 13.9834 25.0836 13.7769 25.0982 13.5684L25.1024 13.3984H25.0684C24.9069 13.3984 24.6263 13.3474 24.3713 13.2624V13.2666Z" fill="#C09300"/>
<path d="M24.4683 12.7566C24.4981 12.7608 24.4301 12.6078 24.4301 12.6078C24.5066 12.6843 24.7871 12.7056 24.7871 12.7056C24.6171 12.629 24.4471 12.0637 24.4683 11.6089C24.4853 11.1583 24.4046 10.9798 24.3408 10.9118C24.2558 10.8268 23.9795 10.7502 23.801 10.7417C23.6947 10.7375 23.716 10.8183 23.716 10.8183C23.5247 10.7715 23.3334 10.7502 23.2484 10.8097C23.1719 10.8608 23.1549 11.1286 23.2144 11.0818C23.3547 10.967 23.4779 11.0733 23.5629 11.1966C23.6394 11.3028 23.6352 11.6089 23.5247 11.9702C23.4268 12.2433 23.2831 12.4978 23.0996 12.7226C23.2696 12.7226 23.5077 12.5738 23.5077 12.5738L23.4524 12.8076C23.6309 12.7226 23.7712 12.5908 23.7712 12.5908L23.9412 12.7693C23.9965 12.6928 24.1113 12.5908 24.1113 12.5908C24.1113 12.5908 24.2515 12.7396 24.4683 12.7608V12.7566Z" fill="white" stroke="#C09300" strokeWidth="0.1"/>
<path d="M23.7803 11.6769C23.7803 11.6769 23.6868 12.374 23.5083 12.5695M23.9334 11.6556C23.9334 11.6556 23.8909 12.3655 23.7718 12.5908M24.0651 11.6854C24.0651 11.6854 24.0651 12.459 24.1076 12.5908M24.2352 11.7237C24.2352 11.7237 24.2692 12.374 24.4307 12.6078" stroke="#C09300" strokeWidth="0.1"/>
<path d="M23.6054 11.3368C23.6016 11.2875 23.5871 11.2397 23.5629 11.1965C23.4779 11.069 23.3546 10.967 23.2144 11.0818C23.2144 11.0818 23.2611 10.933 23.3674 10.9288C23.4439 10.9245 23.6267 10.9883 23.7882 11.2603C23.7882 11.2603 23.6692 11.2348 23.6394 11.2603C23.5884 11.3028 23.6097 11.3368 23.6097 11.3368H23.6054Z" fill="#C09300" stroke="#C09300" strokeWidth="0.1"/>
<path d="M23.1968 10.899C23.2095 10.8565 23.2265 10.8225 23.252 10.8097C23.3371 10.7502 23.5241 10.7672 23.7154 10.8183C23.7154 10.8183 23.6984 10.7375 23.8004 10.7417C23.9789 10.7502 24.2509 10.8268 24.336 10.9118C24.3632 10.9417 24.3848 10.9762 24.3997 11.0138C24.3572 10.9543 24.2382 10.9585 24.2084 10.9628C24.1659 10.967 24.1362 10.9628 24.0767 10.9798C24.0469 10.9883 24.0044 10.9968 23.9789 11.0138C23.9619 11.0308 23.9449 11.0818 23.9194 11.0818C23.8769 11.0818 23.8769 11.0733 23.8641 11.0605C23.8514 11.0393 23.8429 11.0138 23.8259 11.018C23.7834 11.0223 23.7069 10.9883 23.6133 10.9118C23.5156 10.8353 23.4773 10.8183 23.3583 10.8268C23.2308 10.8353 23.1968 10.9075 23.1968 10.9075V10.899Z" fill="#C09300" stroke="#C09300" strokeWidth="0.1"/>
<path d="M23.8948 11.0095C23.9229 11.0095 23.9458 10.9867 23.9458 10.9585C23.9458 10.9303 23.9229 10.9075 23.8948 10.9075C23.8666 10.9075 23.8438 10.9303 23.8438 10.9585C23.8438 10.9867 23.8666 11.0095 23.8948 11.0095Z" fill="white"/>
</g>
</g>
<defs>
<filter id="filter0_d_2545_2838" x="0" y="0" width="48" height="38" filterUnits="userSpaceOnUse" color-interpolation-filters="sRGB">
<feFlood flood-opacity="0" result="BackgroundImageFix"/>
<feColorMatrix in="SourceAlpha" type="matrix" values="0 0 0 0 0 0 0 0 0 0 0 0 0 0 0 0 0 0 127 0" result="hardAlpha"/>
<feOffset dy="4"/>
<feGaussianBlur stdDeviation="2"/>
<feComposite in2="hardAlpha" operator="out"/>
<feColorMatrix type="matrix" values="0 0 0 0 0 0 0 0 0 0 0 0 0 0 0 0 0 0 0.25 0"/>
<feBlend mode="normal" in2="BackgroundImageFix" result="effect1_dropShadow_2545_2838"/>
<feBlend mode="normal" in="SourceGraphic" in2="effect1_dropShadow_2545_2838" result="shape"/>
</filter>
<clipPath id="clip0_2545_2838">
<rect x="4" width="40" height="30" rx="4" fill="white"/>
</clipPath>
</defs>
</svg>
