<svg width="48" height="38" viewBox="0 0 48 38" fill="none" xmlns="http://www.w3.org/2000/svg">
<g filter="url(#filter0_d_2545_2874)">
<g clip-path="url(#clip0_2545_2874)">
<path d="M4 0H44V10H4V0Z" fill="#FF9933"/>
<path d="M4 10H44V20H4V10Z" fill="white"/>
<path d="M4 20H44V30H4V20Z" fill="#128807"/>
<path d="M24 19C26.2091 19 28 17.2091 28 15C28 12.7909 26.2091 11 24 11C21.7909 11 20 12.7909 20 15C20 17.2091 21.7909 19 24 19Z" fill="#000088"/>
<path d="M24 18.5C25.933 18.5 27.5 16.933 27.5 15C27.5 13.067 25.933 11.5 24 11.5C22.067 11.5 20.5 13.067 20.5 15C20.5 16.933 22.067 18.5 24 18.5Z" fill="white"/>
<path d="M23.9998 15.7C24.3864 15.7 24.6998 15.3866 24.6998 15C24.6998 14.6134 24.3864 14.3 23.9998 14.3C23.6132 14.3 23.2998 14.6134 23.2998 15C23.2998 15.3866 23.6132 15.7 23.9998 15.7Z" fill="#000088"/>
<path d="M27.4464 15.6366C27.545 15.6496 27.6354 15.5802 27.6484 15.4816C27.6613 15.3831 27.592 15.2927 27.4934 15.2797C27.3948 15.2667 27.3044 15.3361 27.2914 15.4347C27.2785 15.5332 27.3479 15.6236 27.4464 15.6366Z" fill="#000088"/>
<path d="M23.9999 18.5L24.1199 16.4L23.9999 15.4L23.8799 16.4L23.9999 18.5Z" fill="#000088"/>
<path d="M27.1638 16.5069C27.2556 16.545 27.3609 16.5013 27.399 16.4095C27.437 16.3177 27.3934 16.2124 27.3016 16.1743C27.2097 16.1363 27.1044 16.1799 27.0664 16.2717C27.0283 16.3636 27.0719 16.4689 27.1638 16.5069Z" fill="#000088"/>
<path d="M23.0938 18.3807L23.7533 16.3834L23.8962 15.3864L23.5215 16.3212L23.0938 18.3807Z" fill="#000088"/>
<path d="M26.6658 17.2745C26.7447 17.3351 26.8577 17.3202 26.9182 17.2413C26.9787 17.1625 26.9639 17.0495 26.885 16.9889C26.8061 16.9284 26.6931 16.9433 26.6326 17.0222C26.5721 17.101 26.587 17.214 26.6658 17.2745Z" fill="#000088"/>
<path d="M22.2497 18.0311L23.4036 16.2724L23.7997 15.3464L23.1958 16.1524L22.2497 18.0311Z" fill="#000088"/>
<path d="M25.9861 17.8872C26.0466 17.966 26.1596 17.9809 26.2385 17.9204C26.3173 17.8599 26.3322 17.7469 26.2717 17.668C26.2112 17.5891 26.0982 17.5743 26.0193 17.6348C25.9404 17.6953 25.9256 17.8083 25.9861 17.8872Z" fill="#000088"/>
<path d="M21.5247 17.4749L23.0944 16.0748L23.7167 15.2828L22.9247 15.9051L21.5247 17.4749Z" fill="#000088"/>
<path d="M25.1718 18.3031C25.2099 18.3949 25.3152 18.4385 25.407 18.4005C25.4989 18.3624 25.5425 18.2571 25.5044 18.1653C25.4664 18.0734 25.3611 18.0298 25.2692 18.0679C25.1774 18.1059 25.1338 18.2112 25.1718 18.3031Z" fill="#000088"/>
<path d="M20.9691 16.75L22.8477 15.8039L23.6538 15.2L22.7277 15.5961L20.9691 16.75Z" fill="#000088"/>
<path d="M24.2774 18.4939C24.2904 18.5924 24.3808 18.6618 24.4794 18.6488C24.5779 18.6358 24.6473 18.5454 24.6343 18.4469C24.6214 18.3483 24.5309 18.2789 24.4324 18.2919C24.3338 18.3049 24.2644 18.3953 24.2774 18.4939Z" fill="#000088"/>
<path d="M20.6197 15.9059L22.6792 15.4783L23.6141 15.1036L22.6171 15.2465L20.6197 15.9059Z" fill="#000088"/>
<path d="M23.3637 18.4465C23.3508 18.545 23.4201 18.6355 23.5187 18.6484C23.6173 18.6614 23.7077 18.592 23.7206 18.4935C23.7336 18.3949 23.6642 18.3045 23.5657 18.2915C23.4671 18.2785 23.3767 18.3479 23.3637 18.4465Z" fill="#000088"/>
<path d="M20.5001 15L22.6001 15.12L23.6001 15L22.6001 14.88L20.5001 15Z" fill="#000088"/>
<path d="M22.4931 18.1643C22.455 18.2561 22.4986 18.3614 22.5905 18.3995C22.6823 18.4375 22.7876 18.3939 22.8256 18.3021C22.8637 18.2102 22.8201 18.1049 22.7282 18.0669C22.6364 18.0288 22.5311 18.0725 22.4931 18.1643Z" fill="#000088"/>
<path d="M20.6196 14.0941L22.617 14.7536L23.614 14.8965L22.6791 14.5217L20.6196 14.0941Z" fill="#000088"/>
<path d="M21.7254 17.6665C21.6649 17.7453 21.6798 17.8583 21.7586 17.9189C21.8375 17.9794 21.9505 17.9645 22.011 17.8856C22.0715 17.8068 22.0567 17.6938 21.9778 17.6333C21.8989 17.5727 21.7859 17.5876 21.7254 17.6665Z" fill="#000088"/>
<path d="M20.9687 13.25L22.7274 14.404L23.6534 14.8L22.8474 14.1961L20.9687 13.25Z" fill="#000088"/>
<path d="M21.1127 16.9869C21.0338 17.0474 21.0189 17.1604 21.0794 17.2393C21.1399 17.3182 21.2529 17.333 21.3318 17.2725C21.4107 17.212 21.4256 17.099 21.365 17.0201C21.3045 16.9413 21.1915 16.9264 21.1127 16.9869Z" fill="#000088"/>
<path d="M21.5249 12.5251L22.9249 14.0949L23.7169 14.7172L23.0947 13.9252L21.5249 12.5251Z" fill="#000088"/>
<path d="M20.6969 16.1719C20.6051 16.21 20.5615 16.3153 20.5995 16.4071C20.6375 16.499 20.7428 16.5426 20.8347 16.5045C20.9265 16.4665 20.9701 16.3612 20.9321 16.2693C20.8941 16.1775 20.7888 16.1339 20.6969 16.1719Z" fill="#000088"/>
<path d="M22.2499 11.9689L23.196 13.8476L23.7999 14.6536L23.4038 13.7276L22.2499 11.9689Z" fill="#000088"/>
<path d="M20.506 15.2771C20.4074 15.2901 20.3381 15.3805 20.351 15.479C20.364 15.5776 20.4544 15.647 20.553 15.634C20.6515 15.621 20.7209 15.5306 20.708 15.432C20.695 15.3335 20.6046 15.2641 20.506 15.2771Z" fill="#000088"/>
<path d="M23.094 11.6192L23.5216 13.6787L23.8963 14.6136L23.7534 13.6166L23.094 11.6192Z" fill="#000088"/>
<path d="M20.5531 14.3634C20.4545 14.3504 20.3641 14.4198 20.3511 14.5184C20.3382 14.6169 20.4075 14.7073 20.5061 14.7203C20.6047 14.7333 20.6951 14.6639 20.7081 14.5653C20.721 14.4668 20.6517 14.3764 20.5531 14.3634Z" fill="#000088"/>
<path d="M23.9996 11.5L23.8796 13.6L23.9996 14.6L24.1196 13.6L23.9996 11.5Z" fill="#000088"/>
<path d="M20.8357 13.4931C20.7439 13.455 20.6386 13.4987 20.6005 13.5905C20.5625 13.6823 20.6061 13.7876 20.698 13.8257C20.7898 13.8637 20.8951 13.8201 20.9331 13.7283C20.9712 13.6364 20.9276 13.5311 20.8357 13.4931Z" fill="#000088"/>
<path d="M24.9057 11.6193L24.2462 13.6166L24.1033 14.6136L24.4781 13.6788L24.9057 11.6193Z" fill="#000088"/>
<path d="M21.3337 12.7255C21.2548 12.6649 21.1418 12.6798 21.0813 12.7587C21.0208 12.8375 21.0357 12.9505 21.1145 13.0111C21.1934 13.0716 21.3064 13.0567 21.3669 12.9778C21.4274 12.899 21.4125 12.786 21.3337 12.7255Z" fill="#000088"/>
<path d="M25.7498 11.9689L24.5959 13.7276L24.1998 14.6536L24.8037 13.8476L25.7498 11.9689Z" fill="#000088"/>
<path d="M22.0134 12.1128C21.9529 12.034 21.8399 12.0191 21.7611 12.0796C21.6822 12.1401 21.6673 12.2531 21.7278 12.332C21.7883 12.4109 21.9013 12.4257 21.9802 12.3652C22.0591 12.3047 22.074 12.1917 22.0134 12.1128Z" fill="#000088"/>
<path d="M26.4749 12.5251L24.9051 13.9252L24.2828 14.7172L25.0748 14.0949L26.4749 12.5251Z" fill="#000088"/>
<path d="M22.8282 11.6969C22.7901 11.6051 22.6848 11.5615 22.593 11.5995C22.5011 11.6376 22.4575 11.7429 22.4956 11.8347C22.5336 11.9266 22.6389 11.9702 22.7308 11.9321C22.8226 11.8941 22.8662 11.7888 22.8282 11.6969Z" fill="#000088"/>
<path d="M27.0309 13.25L25.1523 14.1961L24.3462 14.8L25.2723 14.4039L27.0309 13.25Z" fill="#000088"/>
<path d="M23.7226 11.5061C23.7096 11.4076 23.6192 11.3382 23.5206 11.3512C23.4221 11.3642 23.3527 11.4546 23.3657 11.5531C23.3786 11.6517 23.4691 11.7211 23.5676 11.7081C23.6662 11.6951 23.7356 11.6047 23.7226 11.5061Z" fill="#000088"/>
<path d="M27.3803 14.0941L25.3208 14.5217L24.3859 14.8964L25.3829 14.7535L27.3803 14.0941Z" fill="#000088"/>
<path d="M24.6363 11.5535C24.6492 11.455 24.5799 11.3645 24.4813 11.3516C24.3827 11.3386 24.2923 11.408 24.2794 11.5065C24.2664 11.6051 24.3358 11.6955 24.4343 11.7085C24.5329 11.7215 24.6233 11.6521 24.6363 11.5535Z" fill="#000088"/>
<path d="M27.4999 15L25.3999 14.88L24.3999 15L25.3999 15.12L27.4999 15Z" fill="#000088"/>
<path d="M25.5069 11.8357C25.545 11.7439 25.5014 11.6386 25.4095 11.6005C25.3177 11.5625 25.2124 11.6061 25.1744 11.6979C25.1363 11.7898 25.1799 11.8951 25.2718 11.9331C25.3636 11.9712 25.4689 11.9275 25.5069 11.8357Z" fill="#000088"/>
<path d="M27.3804 15.9059L25.383 15.2464L24.386 15.1035L25.3209 15.4783L27.3804 15.9059Z" fill="#000088"/>
<path d="M26.2746 12.3335C26.3351 12.2547 26.3202 12.1417 26.2414 12.0811C26.1625 12.0206 26.0495 12.0355 25.989 12.1144C25.9285 12.1932 25.9433 12.3062 26.0222 12.3667C26.1011 12.4273 26.2141 12.4124 26.2746 12.3335Z" fill="#000088"/>
<path d="M27.0313 16.75L25.2726 15.596L24.3466 15.2L25.1526 15.8039L27.0313 16.75Z" fill="#000088"/>
<path d="M26.8873 13.0131C26.9662 12.9526 26.9811 12.8396 26.9206 12.7607C26.8601 12.6818 26.7471 12.667 26.6682 12.7275C26.5893 12.788 26.5744 12.901 26.635 12.9799C26.6955 13.0587 26.8085 13.0736 26.8873 13.0131Z" fill="#000088"/>
<path d="M26.4751 17.4749L25.0751 15.9051L24.2831 15.2828L24.9053 16.0748L26.4751 17.4749Z" fill="#000088"/>
<path d="M27.3031 13.8281C27.3949 13.79 27.4385 13.6847 27.4005 13.5929C27.3625 13.501 27.2572 13.4574 27.1653 13.4955C27.0735 13.5335 27.0299 13.6388 27.0679 13.7307C27.1059 13.8225 27.2112 13.8661 27.3031 13.8281Z" fill="#000088"/>
<path d="M25.7501 18.0311L24.804 16.1524L24.2001 15.3464L24.5962 16.2724L25.7501 18.0311Z" fill="#000088"/>
<path d="M27.494 14.7229C27.5926 14.7099 27.6619 14.6195 27.649 14.521C27.636 14.4224 27.5456 14.353 27.447 14.366C27.3485 14.379 27.2791 14.4694 27.292 14.568C27.305 14.6665 27.3954 14.7359 27.494 14.7229Z" fill="#000088"/>
<path d="M24.906 18.3808L24.4784 16.3213L24.1037 15.3864L24.2466 16.3834L24.906 18.3808Z" fill="#000088"/>
</g>
</g>
<defs>
<filter id="filter0_d_2545_2874" x="0" y="0" width="48" height="38" filterUnits="userSpaceOnUse" color-interpolation-filters="sRGB">
<feFlood flood-opacity="0" result="BackgroundImageFix"/>
<feColorMatrix in="SourceAlpha" type="matrix" values="0 0 0 0 0 0 0 0 0 0 0 0 0 0 0 0 0 0 127 0" result="hardAlpha"/>
<feOffset dy="4"/>
<feGaussianBlur stdDeviation="2"/>
<feComposite in2="hardAlpha" operator="out"/>
<feColorMatrix type="matrix" values="0 0 0 0 0 0 0 0 0 0 0 0 0 0 0 0 0 0 0.25 0"/>
<feBlend mode="normal" in2="BackgroundImageFix" result="effect1_dropShadow_2545_2874"/>
<feBlend mode="normal" in="SourceGraphic" in2="effect1_dropShadow_2545_2874" result="shape"/>
</filter>
<clipPath id="clip0_2545_2874">
<rect x="4" width="40" height="30" rx="4" fill="white"/>
</clipPath>
</defs>
</svg>
