<svg xmlns="http://www.w3.org/2000/svg" width="19" height="20" viewBox="0 0 19 20" fill="none" class="endAdornment-icon"><path d="M9.49935 4.79163C9.89293 4.79163 10.2228 4.65856 10.4889 4.39242C10.7551 4.1261 10.8882 3.79623 10.8882 3.40283C10.8882 3.00926 10.7551 2.67939 10.4889 2.41325C10.2228 2.14693 9.89293 2.01377 9.49935 2.01377C9.10577 2.01377 8.77591 2.14693 8.50977 2.41325C8.24362 2.67939 8.11055 3.00926 8.11055 3.40283C8.11055 3.79623 8.24362 4.1261 8.50977 4.39242C8.77591 4.65856 9.10577 4.79163 9.49935 4.79163ZM0.853516 19.375L2.93685 4.79163H6.71289C6.60299 4.57167 6.51905 4.34997 6.46107 4.12653C6.40325 3.90292 6.37435 3.66169 6.37435 3.40283C6.37435 2.53478 6.67817 1.79693 7.28581 1.18929C7.89345 0.581651 8.63129 0.277832 9.49935 0.277832C10.3674 0.277832 11.1053 0.581651 11.7129 1.18929C12.3205 1.79693 12.6243 2.53478 12.6243 3.40283C12.6243 3.66325 12.5954 3.90483 12.5376 4.12757C12.4796 4.35032 12.3957 4.57167 12.2858 4.79163H16.0618L18.1452 19.375H0.853516Z" fill="#89888A"></path></svg>